<mxfile host="app.diagrams.net" modified="2023-11-01T09:14:32.330Z" agent="Mozilla/5.0 (X11; Linux x86_64; rv:109.0) Gecko/20100101 Firefox/118.0" version="22.0.8" etag="s-jWVcnSP9SS8swQty09" type="github">
  <diagram name="Page-1" id="iMuX0Kju8CnYIMhquK7x">
    <mxGraphModel>
      <root>
        <mxCell id="0" />
        <mxCell id="1" parent="0" />
      </root>
    </mxGraphModel>
  </diagram>
</mxfile>
